<svg width="437" height="326" viewBox="0 0 437 326" fill="none" xmlns="http://www.w3.org/2000/svg">
<mask id="mask0_3_13" style="mask-type:alpha" maskUnits="userSpaceOnUse" x="0" y="0" width="437" height="326">
<path d="M27.674 0L46.1817 229.856H46.887L65.3958 0H93.0687L63.2799 326H29.7887L0 0H27.674ZM122.753 0V326H98.2525V0H122.753ZM130.855 326V0H155.357V254.688H191.844V326H130.855ZM198.239 326V0H222.74V254.688H259.227V326H198.239ZM289.065 326H262.625L292.415 0H325.905L355.695 326H329.254L309.512 89.7777H308.808L289.065 326ZM284.129 197.382H333.836V263.601H284.129V197.382ZM360.877 326V0H399.832C406.531 0 412.391 4.40409 417.415 13.2123C422.438 22.0192 426.346 34.701 429.136 51.2564C431.928 67.8105 433.323 87.6543 433.323 110.789C433.323 134.136 431.883 153.821 429.005 169.845C426.155 185.868 422.144 197.966 416.974 206.137C411.833 214.308 405.825 218.394 398.951 218.394H375.683V149.629H394.015C396.894 149.629 399.348 148.356 401.374 145.809C403.431 143.156 405.002 138.964 406.089 133.234C407.206 127.503 407.764 120.021 407.764 110.789C407.764 101.45 407.206 93.8632 406.089 88.0262C405.002 82.0838 403.431 77.733 401.374 74.9738C399.348 72.108 396.894 70.6763 394.015 70.6763H385.378V326H360.877ZM413.757 176.371L436.319 326H409.703L387.67 176.371H413.757Z" fill="black"/>
</mask>
<g mask="url(#mask0_3_13)">
<path d="M218.16 412.768C355.761 412.768 467.308 301.221 467.308 163.62C467.308 26.019 355.761 -85.5285 218.16 -85.5285C80.5589 -85.5285 -30.9886 26.019 -30.9886 163.62C-30.9886 301.221 80.5589 412.768 218.16 412.768Z" fill="#28282D"/>
<path d="M321.945 87.254C321.358 79.4771 319.744 72.6546 317.103 66.7854C314.462 60.7699 310.72 55.7076 305.879 51.5997C301.037 47.3444 295.02 44.1897 287.831 42.1358C280.788 39.9344 272.498 38.8349 262.961 38.8349C242.419 38.8349 223.712 43.7497 206.838 53.5805C189.965 63.4114 175.806 77.5706 164.361 96.0572C153.063 114.545 145.287 136.848 141.032 162.965C136.63 189.375 136.263 211.972 139.931 230.752C143.599 249.534 151.522 263.912 163.7 273.89C176.025 283.867 192.678 288.856 213.661 288.856C232.442 288.856 248.655 286.141 262.301 280.712C275.946 275.284 286.878 267.58 295.094 257.603C303.31 247.626 308.446 235.888 310.501 222.389L331.629 224.59H228.626L242.713 137.434H442.554L432.43 199.94C425.68 241.023 411.154 276.164 388.852 305.363C366.697 334.414 339.112 356.717 306.098 372.27C273.085 387.676 236.843 395.38 197.374 395.38C153.65 395.38 116.748 386.062 86.6689 367.428C56.5901 348.794 35.0952 322.237 22.1829 287.755C9.41804 253.275 6.9241 212.264 14.6998 164.725C20.8628 127.457 32.0137 94.4433 48.1538 65.6847C64.4401 36.9272 84.3212 12.6433 107.798 -7.16456C131.274 -27.1187 157.172 -42.1581 185.489 -52.2827C213.808 -62.5536 243.153 -67.689 273.525 -67.689C300.082 -67.689 324.219 -63.8737 345.934 -56.2443C367.65 -48.7612 386.211 -38.0503 401.617 -24.1116C417.023 -10.3192 428.541 6.04154 436.172 24.9681C443.948 43.896 447.102 64.6583 445.635 87.254H321.945Z" fill="white"/>
<mask id="mask1_3_13" style="mask-type:luminance" maskUnits="userSpaceOnUse" x="8" y="-70" width="440" height="467">
<path d="M8.6768 -69.4145H447.475V396.654H8.6768V-69.4145Z" fill="white"/>
<path d="M321.945 87.254C321.358 79.4771 319.744 72.6546 317.103 66.7854C314.462 60.7699 310.72 55.7076 305.879 51.5997C301.037 47.3444 295.02 44.1897 287.831 42.1358C280.788 39.9344 272.498 38.8349 262.961 38.8349C242.419 38.8349 223.712 43.7497 206.838 53.5805C189.965 63.4114 175.806 77.5706 164.361 96.0572C153.063 114.545 145.287 136.848 141.032 162.965C136.63 189.375 136.263 211.972 139.931 230.752C143.599 249.534 151.522 263.912 163.7 273.89C176.025 283.867 192.678 288.856 213.661 288.856C232.442 288.856 248.655 286.141 262.301 280.712C275.946 275.284 286.878 267.58 295.094 257.603C303.31 247.626 308.446 235.888 310.501 222.389L331.629 224.59H228.626L242.713 137.434H442.554L432.43 199.94C425.68 241.023 411.154 276.164 388.852 305.363C366.697 334.414 339.112 356.717 306.098 372.27C273.085 387.676 236.843 395.38 197.374 395.38C153.65 395.38 116.748 386.062 86.6689 367.428C56.5901 348.794 35.0952 322.237 22.1829 287.755C9.41804 253.275 6.92409 212.264 14.6997 164.725C20.8628 127.457 32.0137 94.4433 48.1538 65.6847C64.4401 36.9272 84.3212 12.6433 107.798 -7.16456C131.274 -27.1187 157.172 -42.1581 185.489 -52.2827C213.808 -62.5536 243.153 -67.689 273.525 -67.689C300.082 -67.689 324.219 -63.8737 345.934 -56.2443C367.65 -48.7612 386.211 -38.0503 401.617 -24.1116C417.023 -10.3192 428.541 6.04154 436.172 24.9681C443.947 43.896 447.102 64.6583 445.635 87.254H321.945Z" fill="black"/>
</mask>
<g mask="url(#mask1_3_13)">
<path d="M321.945 87.254L320.708 87.3469L320.795 88.4935H321.945V87.254ZM317.103 66.7854L315.968 67.2837L315.972 67.2948L317.103 66.7854ZM305.879 51.5997L305.06 52.5306L305.068 52.5381L305.076 52.5443L305.879 51.5997ZM287.831 42.1358L287.461 43.3183L287.476 43.3233L287.49 43.327L287.831 42.1358ZM164.361 96.0572L163.307 95.4052L163.304 95.4114L164.361 96.0572ZM141.032 162.965L142.254 163.169L142.255 163.164L141.032 162.965ZM163.7 273.89L162.914 274.849L162.921 274.853L163.7 273.89ZM310.501 222.389L310.628 221.156L309.452 221.033L309.275 222.202L310.501 222.389ZM331.629 224.59V225.83L331.758 223.357L331.629 224.59ZM228.626 224.59L227.403 224.392L227.171 225.83H228.626V224.59ZM242.713 137.434V136.195H241.658L241.489 137.236L242.713 137.434ZM442.554 137.434L443.778 137.633L444.011 136.195H442.554V137.434ZM432.43 199.94L433.653 200.14V200.138L432.43 199.94ZM306.098 372.27L306.622 373.393L306.627 373.391L306.098 372.27ZM22.1829 287.755L21.0202 288.185L21.0227 288.19L22.1829 287.755ZM14.6998 164.725L13.4775 164.523L13.4763 164.526L14.6998 164.725ZM48.1538 65.6847L47.0754 65.0748L47.0729 65.0785L48.1538 65.6847ZM107.798 -7.16456L108.598 -6.21756L108.6 -6.22004L107.798 -7.16456ZM185.489 -52.2827L185.907 -51.1151L185.912 -51.1175L185.489 -52.2827ZM345.934 -56.2443L345.524 -55.0754L345.53 -55.0729L345.934 -56.2443ZM401.617 -24.1116L400.785 -23.1919L400.79 -23.1881L401.617 -24.1116ZM436.172 24.9681L435.022 25.4317L435.025 25.4392L436.172 24.9681ZM445.635 87.254V88.4935H446.797L446.872 87.3345L445.635 87.254ZM321.945 87.254L323.181 87.161C322.585 79.27 320.944 72.3013 318.233 66.2771L317.103 66.7854L315.972 67.2948C318.543 73.0079 320.131 79.6853 320.708 87.3469L321.945 87.254ZM317.103 66.7854L318.238 66.2871C315.523 60.1055 311.671 54.8882 306.68 50.6539L305.879 51.5997L305.076 52.5443C309.769 56.5269 313.4 61.4343 315.968 67.2837L317.103 66.7854ZM305.879 51.5997L306.697 50.6688C301.696 46.2747 295.51 43.0407 288.172 40.9434L287.831 42.1358L287.49 43.327C294.532 45.3388 300.376 48.4153 305.06 52.5306L305.879 51.5997ZM287.831 42.1358L288.2 40.952C281.01 38.7047 272.589 37.5953 262.961 37.5953V40.0744C272.407 40.0744 280.567 41.164 287.461 43.3183L287.831 42.1358ZM262.961 38.8349V37.5953C242.212 37.5953 223.286 42.5622 206.214 52.5095L206.838 53.5805L207.462 54.6515C224.137 44.9372 242.627 40.0744 262.961 40.0744V38.8349ZM206.838 53.5805L206.214 52.5095C189.146 62.4532 174.846 76.7649 163.307 95.4052L164.361 96.0572L165.415 96.7104C176.765 78.3751 190.783 64.3683 207.462 54.6515L206.838 53.5805ZM164.361 96.0572L163.304 95.4114C151.905 114.063 144.083 136.523 139.808 162.766L141.032 162.965L142.255 163.164C146.489 137.172 154.22 115.028 165.418 96.7042L164.361 96.0572ZM141.032 162.965L139.808 162.761C135.392 189.263 135.009 212.018 138.715 230.99L139.931 230.752L141.147 230.514C137.516 211.925 137.867 189.487 142.254 163.169L141.032 162.965ZM139.931 230.752L138.715 230.99C142.426 249.991 150.468 264.651 162.914 274.849L163.7 273.89L164.486 272.931C152.577 263.174 144.773 249.075 141.147 230.514L139.931 230.752ZM163.7 273.89L162.921 274.853C175.528 285.06 192.488 290.095 213.661 290.095V287.616C192.871 287.616 176.522 282.674 164.48 272.926L163.7 273.89ZM213.661 288.856V290.095C232.557 290.095 248.933 287.365 262.758 281.865L262.301 280.712L261.842 279.56C248.377 284.918 232.326 287.616 213.661 287.616V288.856ZM262.301 280.712L262.758 281.865C276.572 276.369 287.684 268.551 296.051 258.392L295.094 257.603L294.138 256.815C286.071 266.611 275.32 274.198 261.842 279.56L262.301 280.712ZM295.094 257.603L296.051 258.392C304.418 248.231 309.639 236.282 311.725 222.575L310.501 222.389L309.275 222.202C307.252 235.493 302.203 247.02 294.138 256.815L295.094 257.603ZM310.501 222.389L310.372 223.622L331.5 225.823L331.629 224.59L331.758 223.357L310.628 221.156L310.501 222.389ZM331.629 224.59V223.351H228.626V225.83H331.629V224.59ZM228.626 224.59L229.851 224.788L243.936 137.633L242.713 137.434L241.489 137.236L227.403 224.392L228.626 224.59ZM242.713 137.434V138.674H442.554V136.195H242.713V137.434ZM442.554 137.434L441.331 137.236L431.206 199.741L432.43 199.94L433.653 200.138L443.778 137.633L442.554 137.434ZM432.43 199.94L431.206 199.739C424.485 240.649 410.03 275.594 387.867 304.61L388.852 305.363L389.836 306.115C412.278 276.734 426.875 241.397 433.653 200.14L432.43 199.94ZM388.852 305.363L387.867 304.61C365.831 333.505 338.403 355.681 305.57 371.148L306.098 372.27L306.627 373.391C339.82 357.753 367.562 335.324 389.838 306.114L388.852 305.363ZM306.098 372.27L305.575 371.147C272.738 386.47 236.677 394.14 197.374 394.14V396.619C237.009 396.619 273.432 388.882 306.622 373.393L306.098 372.27ZM197.374 395.38V394.14C153.826 394.14 117.163 384.861 87.3221 366.374L86.6689 367.428L86.0169 368.482C116.332 387.263 153.473 396.619 197.374 396.619V395.38ZM86.6689 367.428L87.3221 366.374C57.4863 347.89 36.1637 321.556 23.3443 287.321L22.1829 287.755L21.0227 288.19C34.0267 322.916 55.694 349.696 86.0169 368.482L86.6689 367.428ZM22.1829 287.755L23.3456 287.325C10.675 253.099 8.17109 212.316 15.9232 164.925L14.6998 164.725L13.4763 164.526C5.67589 212.212 8.16117 253.451 21.0202 288.185L22.1829 287.755ZM14.6998 164.725L15.9232 164.927C22.0651 127.781 33.1752 94.9081 49.2347 66.292L48.1538 65.6847L47.0729 65.0785C30.8523 93.9797 19.6592 127.133 13.4775 164.523L14.6998 164.725ZM48.1538 65.6847L49.2322 66.2958C65.4516 37.6561 85.2409 13.4899 108.598 -6.21756L107.798 -7.16456L106.999 -8.11159C83.4015 11.798 63.4287 36.1984 47.0754 65.0748L48.1538 65.6847ZM107.798 -7.16456L108.6 -6.22004C131.966 -26.08 157.733 -41.0425 185.907 -51.1151L185.489 -52.2827L185.073 -53.4504C156.61 -43.2737 130.582 -28.1575 106.995 -8.10911L107.798 -7.16456ZM185.489 -52.2827L185.912 -51.1175C214.094 -61.3388 243.295 -66.4495 273.525 -66.4495V-68.9286C243.01 -68.9286 213.521 -63.7683 185.066 -53.4479L185.489 -52.2827ZM273.525 -67.689V-66.4495C299.963 -66.4495 323.958 -62.6515 345.524 -55.0754L345.934 -56.2443L346.346 -57.4132C324.479 -65.0959 300.201 -68.9286 273.525 -68.9286V-67.689ZM345.934 -56.2443L345.53 -55.0729C367.104 -47.6381 385.515 -37.0078 400.785 -23.1919L401.617 -24.1116L402.449 -25.0301C386.906 -39.0927 368.195 -49.8842 346.338 -57.4157L345.934 -56.2443ZM401.617 -24.1116L400.79 -23.1881C416.058 -9.52094 427.464 6.68237 435.022 25.4317L436.172 24.9681L437.321 24.5058C429.62 5.39944 417.99 -11.1175 402.444 -25.0351L401.617 -24.1116ZM436.172 24.9681L435.025 25.4392C442.722 44.1749 445.854 64.7463 444.399 87.1734L445.635 87.254L446.872 87.3345C448.35 64.5703 445.173 43.6183 437.317 24.4971L436.172 24.9681ZM445.635 87.254V86.0144H321.945V88.4935H445.635V87.254Z" fill="#006BAE"/>
</g>
</g>
</svg>
