<svg xmlns="http://www.w3.org/2000/svg" viewBox="0 -0.5 500 500" shape-rendering="crispEdges">
<metadata>Made with Pixels to Svg https://codepen.io/shshaw/pen/XbxvNj</metadata>
<path stroke="rgba(180,255,255,0.06666666666666667)" d="M201 92h1" />
<path stroke="rgba(181,246,254,0.5607843137254902)" d="M202 92h31M265 92h31M264 250h1M264 251h1M264 252h1M264 253h1M264 254h1M264 255h1M264 256h1M264 257h1M264 258h1M264 259h1M264 281h1M264 282h1M264 283h1M264 284h1M264 285h1M264 286h1M264 287h1M264 288h1M264 289h1M264 290h1" />
<path stroke="rgba(185,246,255,0.24313725490196078)" d="M264 92h1" />
<path stroke="rgba(180,246,254,0.12156862745098039)" d="M201 93h1M201 94h1M201 95h1M201 96h1M201 97h1M201 98h1M201 99h1M201 100h1M201 101h1M201 102h1M201 187h1M201 188h1M201 189h1M201 190h1M201 191h1M201 192h1M201 193h1M201 194h1M201 195h1M201 196h1M369 260h1M369 261h1M369 262h1M369 263h1M369 264h1M369 265h1M369 266h1M369 267h1M369 268h1M369 269h1M369 270h1M369 271h1M369 272h1M369 273h1M369 274h1M369 275h1M369 276h1M369 277h1M369 278h1M369 279h1M369 280h1M369 281h1M369 282h1M369 283h1M369 284h1M369 285h1M369 286h1M369 287h1M369 288h1M369 289h1M369 290h1M369 291h1M369 292h1M369 293h1M369 294h1M369 295h1M369 296h1M369 297h1M369 298h1M369 299h1M369 300h1M369 301h1M369 302h1M369 303h1M369 304h1M369 305h1M369 306h1M369 307h1M369 308h1M369 309h1M369 310h1M369 311h1M369 312h1M369 313h1M369 314h1M369 315h1M369 316h1M369 317h1M369 318h1M369 319h1M369 320h1M369 321h1M201 386h1M201 387h1M201 388h1M201 389h1M201 390h1M201 391h1M201 392h1M201 393h1M201 394h1M201 395h1" />
<path stroke="#b7f7ff" d="M202 93h31M265 93h31M202 94h31M265 94h31M202 95h31M265 95h31M202 96h31M265 96h31M202 97h31M265 97h31M202 98h31M265 98h31M202 99h31M265 99h31M202 100h31M265 100h31M202 101h31M265 101h31M202 102h31M265 102h31M192 103h114M192 104h114M192 105h114M192 106h114M192 107h114M192 108h114M192 109h114M192 110h114M192 111h114M192 112h114M192 113h114M192 114h114M192 115h114M192 116h114M192 117h114M192 118h114M192 119h114M192 120h114M192 121h114M192 122h114M192 123h114M192 124h114M192 125h114M192 126h114M192 127h114M192 128h114M192 129h114M192 130h114M192 131h114M192 132h114M192 133h114M192 134h114M192 135h114M192 136h114M192 137h114M192 138h114M192 139h114M192 140h114M192 141h114M192 142h114M192 143h114M192 144h114M192 145h114M192 146h114M192 147h114M192 148h114M192 149h114M192 150h114M192 151h114M192 152h114M192 153h114M192 154h114M192 155h114M160 156h188M160 157h188M160 158h188M160 159h188M160 160h188M160 161h188M160 162h188M160 163h188M160 164h188M160 165h188M160 166h188M160 167h188M160 168h188M160 169h188M160 170h188M160 171h188M160 172h188M160 173h188M160 174h188M160 175h188M202 187h104M202 188h104M202 189h104M202 190h104M202 191h104M202 192h104M202 193h104M202 194h104M202 195h104M202 196h104M181 197h146M181 198h146M181 199h146M181 200h146M181 201h146M181 202h146M181 203h146M181 204h146M181 205h146M181 206h146M181 207h146M171 208h167M171 209h167M171 210h167M171 211h167M171 212h167M171 213h167M171 214h167M171 215h167M171 216h167M171 217h167M160 218h188M160 219h188M160 220h188M160 221h188M160 222h188M160 223h188M160 224h188M160 225h188M160 226h188M160 227h188M160 228h188M160 229h188M453 229h31M160 230h188M453 230h31M160 231h188M453 231h31M160 232h188M453 232h31M160 233h188M453 233h31M160 234h188M453 234h31M160 235h188M453 235h31M160 236h188M453 236h31M160 237h188M453 237h31M160 238h188M453 238h31M150 239h125M296 239h62M432 239h63M150 240h125M296 240h62M432 240h63M150 241h125M296 241h62M432 241h63M150 242h125M296 242h62M432 242h63M150 243h125M296 243h62M432 243h63M150 244h125M296 244h62M432 244h63M150 245h125M296 245h62M432 245h63M150 246h125M296 246h62M432 246h63M150 247h125M296 247h62M432 247h63M150 248h125M296 248h62M432 248h63M150 249h114M307 249h51M432 249h63M150 250h114M307 250h51M411 250h84M150 251h114M307 251h51M411 251h84M150 252h114M307 252h51M411 252h84M150 253h114M307 253h51M411 253h84M150 254h114M307 254h51M411 254h84M150 255h114M307 255h51M411 255h84M150 256h114M307 256h51M411 256h84M150 257h114M307 257h51M411 257h84M150 258h114M307 258h51M411 258h84M150 259h114M307 259h51M411 259h84M139 260h115M317 260h52M380 260h104M139 261h115M317 261h52M380 261h104M139 262h115M317 262h52M380 262h104M139 263h115M317 263h52M380 263h104M139 264h115M317 264h52M380 264h104M139 265h115M317 265h52M380 265h104M139 266h115M317 266h52M380 266h104M139 267h115M317 267h52M380 267h104M139 268h115M317 268h52M380 268h104M139 269h115M317 269h52M380 269h104M139 270h115M317 270h52M380 270h94M139 271h115M317 271h52M380 271h94M139 272h115M317 272h52M380 272h94M139 273h115M317 273h52M380 273h94M139 274h115M317 274h52M380 274h94M139 275h115M317 275h52M380 275h94M139 276h115M317 276h52M380 276h94M139 277h115M317 277h52M380 277h94M139 278h115M317 278h52M380 278h94M139 279h115M317 279h52M380 279h94M139 280h115M317 280h52M380 280h94M139 281h125M307 281h62M380 281h73M139 282h125M307 282h62M380 282h73M139 283h125M307 283h62M380 283h73M139 284h125M307 284h62M380 284h73M139 285h125M307 285h62M380 285h73M139 286h125M307 286h62M380 286h73M139 287h125M307 287h62M380 287h73M139 288h125M307 288h62M380 288h73M139 289h125M307 289h62M380 289h73M139 290h125M307 290h62M380 290h73M139 291h125M307 291h62M380 291h41M139 292h136M296 292h73M380 292h41M139 293h136M296 293h73M380 293h41M139 294h136M296 294h73M380 294h41M139 295h136M296 295h73M380 295h41M139 296h136M296 296h73M380 296h41M139 297h136M296 297h73M380 297h41M139 298h136M296 298h73M380 298h41M139 299h136M296 299h73M380 299h41M139 300h136M296 300h73M380 300h41M139 301h136M296 301h73M380 301h41M139 302h230M139 303h230M139 304h230M139 305h230M139 306h230M139 307h230M139 308h230M139 309h230M139 310h230M139 311h230M139 312h230M139 313h230M139 314h230M139 315h230M139 316h230M139 317h230M139 318h230M139 319h230M139 320h230M139 321h230M150 322h208M150 323h208M150 324h208M150 325h208M150 326h208M150 327h208M150 328h208M150 329h208M150 330h208M150 331h208M150 332h208M150 333h208M150 334h208M150 335h208M150 336h208M150 337h208M150 338h208M150 339h208M150 340h208M150 341h208M150 342h208M160 343h188M160 344h188M160 345h188M160 346h188M160 347h188M160 348h188M160 349h188M160 350h188M160 351h188M160 352h188M160 353h188M160 354h188M160 355h188M160 356h188M160 357h188M160 358h188M160 359h188M160 360h188M160 361h188M160 362h188M160 363h188M171 364h167M171 365h167M171 366h167M171 367h167M171 368h167M171 369h167M171 370h167M171 371h167M171 372h167M171 373h167M171 374h167M181 375h146M181 376h146M181 377h146M181 378h146M181 379h146M181 380h146M181 381h146M181 382h146M181 383h146M181 384h146M202 385h104M202 386h104M202 387h104M202 388h104M202 389h104M202 390h104M202 391h104M202 392h104M202 393h104M202 394h104M202 395h104" />
<path stroke="rgba(183,248,255,0.43529411764705883)" d="M264 93h1M264 94h1M264 95h1M264 96h1M264 97h1M264 98h1M264 99h1M264 100h1M264 101h1M264 102h1M453 228h31" />
<path stroke="rgba(182,246,254,0.8745098039215686)" d="M191 103h1M191 104h1M191 105h1M191 106h1M191 107h1M191 108h1M191 109h1M191 110h1M191 111h1M191 112h1M191 113h1M191 114h1M191 115h1M191 116h1M191 117h1M191 118h1M191 119h1M191 120h1M191 121h1M191 122h1M191 123h1M191 124h1M191 125h1M191 126h1M191 127h1M191 128h1M191 129h1M191 130h1M191 131h1M191 132h1M191 133h1M191 134h1M191 135h1M191 136h1M191 137h1M191 138h1M191 139h1M191 140h1M191 141h1M191 142h1M191 143h1M191 144h1M191 145h1M191 146h1M191 147h1M191 148h1M191 149h1M191 150h1M191 151h1M191 152h1M191 153h1M191 154h1M160 155h31M307 155h41" />
<path stroke="rgba(182,246,254,0.37254901960784315)" d="M306 103h1M306 104h1M306 105h1M306 106h1M306 107h1M306 108h1M306 109h1M306 110h1M306 111h1M306 112h1M306 113h1M306 114h1M306 115h1M306 116h1M306 117h1M306 118h1M306 119h1M306 120h1M306 121h1M306 122h1M306 123h1M306 124h1M306 125h1M306 126h1M306 127h1M306 128h1M306 129h1M306 130h1M306 131h1M306 132h1M306 133h1M306 134h1M306 135h1M306 136h1M306 137h1M306 138h1M306 139h1M306 140h1M306 141h1M306 142h1M306 143h1M306 144h1M306 145h1M306 146h1M306 147h1M306 148h1M306 149h1M306 150h1M306 151h1M306 152h1M306 153h1M306 154h1M306 187h1M306 188h1M306 189h1M306 190h1M306 191h1M306 192h1M306 193h1M306 194h1M306 195h1M306 196h1M474 270h10M306 386h1M306 387h1M306 388h1M306 389h1M306 390h1M306 391h1M306 392h1M306 393h1M306 394h1M306 395h1" />
<path stroke="rgba(182,246,254,0.984313725490196)" d="M191 155h1" />
<path stroke="rgba(182,246,254,0.9215686274509803)" d="M306 155h1" />
<path stroke="rgba(186,248,255,0.1607843137254902)" d="M348 155h1" />
<path stroke="rgba(184,249,255,0.1843137254901961)" d="M348 156h1M348 157h1M348 158h1M348 159h1M348 160h1M348 161h1M348 162h1M348 163h1M348 164h1M348 165h1M348 166h1M348 167h1M348 168h1M348 169h1M348 170h1M348 171h1M348 172h1M348 173h1M348 174h1M348 175h1M348 218h1M348 219h1M348 220h1M348 221h1M348 222h1M348 223h1M348 224h1M348 225h1M348 226h1M348 227h1M348 228h1M348 229h1M348 230h1M348 231h1M348 232h1M348 233h1M348 234h1M348 235h1M348 236h1M348 237h1M348 238h1M379 260h1M379 261h1M379 262h1M379 263h1M379 264h1M379 265h1M379 266h1M379 267h1M379 268h1M379 269h1M379 270h1M379 271h1M379 272h1M379 273h1M379 274h1M379 275h1M379 276h1M379 277h1M379 278h1M379 279h1M379 280h1M379 281h1M379 282h1M379 283h1M379 284h1M379 285h1M379 286h1M379 287h1M379 288h1M379 289h1M379 290h1M379 291h1M379 292h1M379 293h1M379 294h1M379 295h1M379 296h1M379 297h1M379 298h1M379 299h1M379 300h1M379 301h1M348 344h1M348 345h1M348 346h1M348 347h1M348 348h1M348 349h1M348 350h1M348 351h1M348 352h1M348 353h1M348 354h1M348 355h1M348 356h1M348 357h1M348 358h1M348 359h1M348 360h1M348 361h1M348 362h1M348 363h1" />
<path stroke="rgba(187,255,255,0.058823529411764705)" d="M160 176h188M180 197h1M180 198h1M180 199h1M180 200h1M180 201h1M180 202h1M180 203h1M180 204h1M180 205h1M180 206h1M180 375h1M180 376h1M180 377h1M180 378h1M180 379h1M180 380h1M180 381h1M180 382h1M180 383h1M180 384h1" />
<path stroke="rgba(255,255,255,0.00784313725490196)" d="M348 176h1" />
<path stroke="rgba(182,255,255,0.027450980392156862)" d="M201 186h1" />
<path stroke="rgba(182,246,255,0.24705882352941178)" d="M202 186h104" />
<path stroke="rgba(188,254,254,0.09019607843137255)" d="M306 186h1" />
<path stroke="rgba(183,248,255,0.30980392156862746)" d="M327 197h1M327 198h1M327 199h1M327 200h1M327 201h1M327 202h1M327 203h1M327 204h1M327 205h1M327 206h1M171 207h9M328 207h10M484 229h1M484 230h1M484 231h1M484 232h1M484 233h1M484 234h1M484 235h1M484 236h1M484 237h1M484 238h1M484 260h1M484 261h1M484 262h1M484 263h1M484 264h1M484 265h1M484 266h1M484 267h1M484 268h1M484 269h1M422 291h31M327 375h1M327 376h1M327 377h1M327 378h1M327 379h1M327 380h1M327 381h1M327 382h1M327 383h1M327 384h1" />
<path stroke="rgba(181,246,255,0.23137254901960785)" d="M170 207h1" />
<path stroke="rgba(184,246,255,0.35294117647058826)" d="M180 207h1" />
<path stroke="rgba(182,247,254,0.5254901960784314)" d="M327 207h1" />
<path stroke="rgba(182,246,255,0.7490196078431373)" d="M170 208h1M170 209h1M170 210h1M170 211h1M170 212h1M170 213h1M170 214h1M170 215h1M170 216h1M170 217h1M160 364h10M338 364h10M170 365h1M170 366h1M170 367h1M170 368h1M170 369h1M170 370h1M170 371h1M170 372h1M170 373h1M170 374h1" />
<path stroke="rgba(187,247,255,0.13333333333333333)" d="M484 228h1" />
<path stroke="rgba(182,246,255,0.6862745098039216)" d="M149 239h1M149 240h1M149 241h1M149 242h1M149 243h1M149 244h1M149 245h1M149 246h1M149 247h1M149 248h1M149 249h1M149 250h1M149 251h1M149 252h1M149 253h1M149 254h1M149 255h1M149 256h1M149 257h1M149 258h1M149 259h1M265 291h10M296 291h10M149 323h1M149 324h1M149 325h1M149 326h1M149 327h1M149 328h1M149 329h1M149 330h1M149 331h1M149 332h1M149 333h1M149 334h1M149 335h1M149 336h1M149 337h1M149 338h1M149 339h1M149 340h1M149 341h1M149 342h1" />
<path stroke="rgba(182,246,254,0.9372549019607843)" d="M358 239h1M358 240h1M358 241h1M358 242h1M358 243h1M358 244h1M358 245h1M358 246h1M358 247h1M358 248h1M358 249h1M358 250h1M358 251h1M358 252h1M358 253h1M358 254h1M358 255h1M358 256h1M358 257h1M358 258h1M358 259h1M139 322h10M359 322h10M358 323h1M358 324h1M358 325h1M358 326h1M358 327h1M358 328h1M358 329h1M358 330h1M358 331h1M358 332h1M358 333h1M358 334h1M358 335h1M358 336h1M358 337h1M358 338h1M358 339h1M358 340h1M358 341h1M358 342h1M170 364h1" />
<path stroke="rgba(181,246,254,0.7803921568627451)" d="M264 249h1" />
<path stroke="rgba(182,246,255,0.4980392156862745)" d="M265 249h10M296 249h10M411 249h21" />
<path stroke="rgba(182,246,254,0.8117647058823529)" d="M306 249h1M150 343h10M349 343h9" />
<path stroke="rgba(182,246,254,0.6235294117647059)" d="M306 250h1M306 251h1M306 252h1M306 253h1M306 254h1M306 255h1M306 256h1M306 257h1M306 258h1M306 259h1M306 281h1M306 282h1M306 283h1M306 284h1M306 285h1M306 286h1M306 287h1M306 288h1M306 289h1M306 290h1M421 292h1M421 293h1M421 294h1M421 295h1M421 296h1M421 297h1M421 298h1M421 299h1M421 300h1M421 301h1M181 385h20M307 385h20" />
<path stroke="rgba(184,246,254,0.11372549019607843)" d="M484 270h1M369 322h1" />
<path stroke="rgba(181,246,254,0.8627450980392157)" d="M264 291h1" />
<path stroke="rgba(182,247,254,0.8823529411764706)" d="M306 291h1" />
<path stroke="rgba(182,246,255,0.7411764705882353)" d="M421 291h1" />
<path stroke="rgba(182,246,255,0.9803921568627451)" d="M149 322h1" />
<path stroke="rgba(182,246,254,0.996078431372549)" d="M358 322h1" />
<path stroke="rgba(183,246,255,0.5568627450980392)" d="M149 343h1" />
<path stroke="rgba(182,246,254,0.8470588235294118)" d="M348 343h1" />
<path stroke="rgba(182,247,255,0.7607843137254902)" d="M358 343h1" />
<path stroke="rgba(182,247,255,0.13725490196078433)" d="M348 364h1" />
<path stroke="rgba(198,254,254,0.03529411764705882)" d="M180 385h1" />
<path stroke="rgba(181,246,254,0.6705882352941176)" d="M201 385h1" />
<path stroke="rgba(183,247,254,0.7647058823529411)" d="M306 385h1" />
<path stroke="rgba(182,249,255,0.19215686274509805)" d="M327 385h1" />
</svg>