<svg xmlns="http://www.w3.org/2000/svg" viewBox="0 -0.5 500 500" shape-rendering="crispEdges">
<metadata>Made with Pixels to Svg https://codepen.io/shshaw/pen/XbxvNj</metadata>
<path stroke="rgba(182,246,254,0.7019607843137254)" d="M122 45h1" />
<path stroke="rgba(182,246,255,0.7490196078431373)" d="M123 45h38M201 45h39M240 229h1M240 230h1M240 231h1M240 232h1M240 233h1M240 234h1M240 235h1M240 236h1M240 237h1M240 238h1M240 239h1M240 240h1M240 241h1M44 255h12M319 255h13M346 255h38M345 256h1M345 257h1M345 258h1M345 259h1M345 260h1M345 261h1M345 262h1M345 263h1M345 264h1M345 265h1M345 266h1M345 267h1M345 268h1M345 269h1M345 270h1M345 271h1M345 272h1M345 273h1M345 274h1M345 275h1M345 276h1M345 277h1M345 278h1M345 279h1M345 280h1M266 281h1M345 281h1M345 282h1M345 283h1M345 284h1M345 285h1M345 286h1M345 287h1M345 288h1M345 289h1M345 290h1M345 291h1M345 292h1M345 293h1M345 294h1M240 295h1M345 295h1M240 296h1M345 296h1M240 297h1M345 297h1M240 298h1M345 298h1M240 299h1M345 299h1M240 300h1M345 300h1M240 301h1M345 301h1M240 302h1M345 302h1M240 303h1M345 303h1M240 304h1M345 304h1M240 305h1M345 305h1M240 306h1M345 306h1" />
<path stroke="rgba(182,246,254,0.37254901960784315)" d="M161 45h1M253 59h1M253 60h1M253 61h1M253 62h1M253 63h1M253 64h1M253 65h1M253 66h1M253 67h1M253 68h1M253 69h1M253 70h1M253 71h1M253 72h1M253 73h1M253 74h1M253 75h1M253 76h1M253 77h1M253 78h1M253 79h1M253 80h1M253 81h1M253 82h1M253 83h1M253 84h1M253 85h1M253 86h1M253 87h1M253 88h1M253 89h1M253 90h1M253 91h1M253 92h1M253 93h1M253 94h1M253 95h1M253 96h1M253 97h1M253 98h1M253 99h1M253 100h1M253 101h1M253 102h1M253 103h1M253 104h1M253 105h1M253 106h1M253 107h1M253 108h1M253 109h1M253 110h1M253 111h1M253 112h1M253 113h1M253 114h1M253 115h1M253 116h1M253 117h1M253 118h1M253 119h1M253 120h1M253 121h1M253 122h1M253 123h1M253 164h1M253 165h1M253 166h1M253 167h1M253 168h1M253 169h1M253 170h1M253 171h1M253 172h1M253 173h1M253 174h1M253 175h1M464 268h12M463 269h1M463 270h1M463 271h1M463 272h1M463 273h1M463 274h1M463 275h1M463 276h1M463 277h1M463 278h1M463 279h1M463 280h1M253 413h1M253 414h1M253 415h1M253 416h1M253 417h1M253 418h1M253 419h1M253 420h1M253 421h1M253 422h1M253 423h1M253 424h1M253 425h1" />
<path stroke="rgba(184,249,255,0.1843137254901961)" d="M240 45h1M82 190h1M82 191h1M82 192h1M82 193h1M82 194h1M82 195h1M82 196h1M82 197h1M82 198h1M82 199h1M82 200h1M82 201h1M70 202h12M293 202h13M476 268h1M463 281h1M214 307h26M82 387h1M82 388h1M82 389h1M82 390h1M82 391h1M82 392h1M82 393h1M82 394h1M82 395h1M82 396h1M82 397h1M82 398h1" />
<path stroke="rgba(182,246,254,0.9372549019607843)" d="M122 46h1M122 47h1M122 48h1M122 49h1M122 50h1M122 51h1M122 52h1M122 53h1M122 54h1M122 55h1M122 56h1M122 57h1M122 164h1M122 165h1M122 166h1M122 167h1M122 168h1M122 169h1M122 170h1M122 171h1M122 172h1M122 173h1M122 174h1M122 175h1M437 216h1M437 217h1M437 218h1M437 219h1M437 220h1M437 221h1M437 222h1M437 223h1M437 224h1M437 225h1M437 226h1M437 227h1M437 228h1M385 242h26M122 413h1M122 414h1M122 415h1M122 416h1M122 417h1M122 418h1M122 419h1M122 420h1M122 421h1M122 422h1M122 423h1M122 424h1M122 425h1" />
<path stroke="#b7f7ff" d="M123 46h38M201 46h39M123 47h38M201 47h39M123 48h38M201 48h39M123 49h38M201 49h39M123 50h38M201 50h39M123 51h38M201 51h39M123 52h38M201 52h39M123 53h38M201 53h39M123 54h38M201 54h39M123 55h38M201 55h39M123 56h38M201 56h39M123 57h38M201 57h39M123 58h38M201 58h39M109 59h144M109 60h144M109 61h144M109 62h144M109 63h144M109 64h144M109 65h144M109 66h144M109 67h144M109 68h144M109 69h144M109 70h144M109 71h144M109 72h144M109 73h144M109 74h144M109 75h144M109 76h144M109 77h144M109 78h144M109 79h144M109 80h144M109 81h144M109 82h144M109 83h144M109 84h144M109 85h144M109 86h144M109 87h144M109 88h144M109 89h144M109 90h144M109 91h144M109 92h144M109 93h144M109 94h144M109 95h144M109 96h144M109 97h144M109 98h144M109 99h144M109 100h144M109 101h144M109 102h144M109 103h144M109 104h144M109 105h144M109 106h144M109 107h144M109 108h144M109 109h144M109 110h144M109 111h144M109 112h144M109 113h144M109 114h144M109 115h144M109 116h144M109 117h144M109 118h144M109 119h144M109 120h144M109 121h144M109 122h144M109 123h144M70 124h236M70 125h236M70 126h236M70 127h236M70 128h236M70 129h236M70 130h236M70 131h236M70 132h236M70 133h236M70 134h236M70 135h236M70 136h236M70 137h236M70 138h236M70 139h236M70 140h236M70 141h236M70 142h236M70 143h236M70 144h236M70 145h236M70 146h236M70 147h236M70 148h236M70 149h236M123 164h130M123 165h130M123 166h130M123 167h130M123 168h130M123 169h130M123 170h130M123 171h130M123 172h130M123 173h130M123 174h130M123 175h130M123 176h130M96 177h183M96 178h183M96 179h183M96 180h183M96 181h183M96 182h183M96 183h183M96 184h183M96 185h183M96 186h183M96 187h183M96 188h183M96 189h183M83 190h209M83 191h209M83 192h209M83 193h209M83 194h209M83 195h209M83 196h209M83 197h209M83 198h209M83 199h209M83 200h209M83 201h209M83 202h209M70 203h236M70 204h236M70 205h236M70 206h236M70 207h236M70 208h236M70 209h236M70 210h236M70 211h236M70 212h236M70 213h236M70 214h236M70 215h236M70 216h236M438 216h38M70 217h236M438 217h38M70 218h236M438 218h38M70 219h236M438 219h38M70 220h236M438 220h38M70 221h236M438 221h38M70 222h236M438 222h38M70 223h236M438 223h38M70 224h236M438 224h38M70 225h236M438 225h38M70 226h236M438 226h38M70 227h236M438 227h38M70 228h236M438 228h38M57 229h157M241 229h78M411 229h78M57 230h157M241 230h78M411 230h78M57 231h157M241 231h78M411 231h78M57 232h157M241 232h78M411 232h78M57 233h157M241 233h78M411 233h78M57 234h157M241 234h78M411 234h78M57 235h157M241 235h78M411 235h78M57 236h157M241 236h78M411 236h78M57 237h157M241 237h78M411 237h78M57 238h157M241 238h78M411 238h78M57 239h157M241 239h78M411 239h78M57 240h157M241 240h78M411 240h78M57 241h157M241 241h78M411 241h78M57 242h144M254 242h65M411 242h78M57 243h144M254 243h65M385 243h104M57 244h144M254 244h65M385 244h104M57 245h144M254 245h65M385 245h104M57 246h144M254 246h65M385 246h104M57 247h144M254 247h65M385 247h104M57 248h144M254 248h65M385 248h104M57 249h144M254 249h65M385 249h104M57 250h144M254 250h65M385 250h104M57 251h144M254 251h65M385 251h104M57 252h144M254 252h65M385 252h104M57 253h144M254 253h65M385 253h104M57 254h144M254 254h65M385 254h104M57 255h130M267 255h52M385 255h91M44 256h143M267 256h65M346 256h130M44 257h143M267 257h65M346 257h130M44 258h143M267 258h65M346 258h130M44 259h143M267 259h65M346 259h130M44 260h143M267 260h65M346 260h130M44 261h143M267 261h65M346 261h130M44 262h143M267 262h65M346 262h130M44 263h143M267 263h65M346 263h130M44 264h143M267 264h65M346 264h130M44 265h143M267 265h65M346 265h130M44 266h143M267 266h65M346 266h130M44 267h143M267 267h65M346 267h130M44 268h143M267 268h65M346 268h117M44 269h143M267 269h65M346 269h117M44 270h143M267 270h65M346 270h117M44 271h143M267 271h65M346 271h117M44 272h143M267 272h65M346 272h117M44 273h143M267 273h65M346 273h117M44 274h143M267 274h65M346 274h117M44 275h143M267 275h65M346 275h117M44 276h143M267 276h65M346 276h117M44 277h143M267 277h65M346 277h117M44 278h143M267 278h65M346 278h117M44 279h143M267 279h65M346 279h117M44 280h143M267 280h65M346 280h117M44 281h143M267 281h65M346 281h91M44 282h157M254 282h78M346 282h91M44 283h157M254 283h78M346 283h91M44 284h157M254 284h78M346 284h91M44 285h157M254 285h78M346 285h91M44 286h157M254 286h78M346 286h91M44 287h157M254 287h78M346 287h91M44 288h157M254 288h78M346 288h91M44 289h157M254 289h78M346 289h91M44 290h157M254 290h78M346 290h91M44 291h157M254 291h78M346 291h91M44 292h157M254 292h78M346 292h91M44 293h157M254 293h78M346 293h91M44 294h157M254 294h78M346 294h51M44 295h170M241 295h91M346 295h51M44 296h170M241 296h91M346 296h51M44 297h170M241 297h91M346 297h51M44 298h170M241 298h91M346 298h51M44 299h170M241 299h91M346 299h51M44 300h170M241 300h91M346 300h51M44 301h170M241 301h91M346 301h51M44 302h170M241 302h91M346 302h51M44 303h170M241 303h91M346 303h51M44 304h170M241 304h91M346 304h51M44 305h170M241 305h91M346 305h51M44 306h170M241 306h91M346 306h51M44 307h170M241 307h91M44 308h288M44 309h288M44 310h288M44 311h288M44 312h288M44 313h288M44 314h288M44 315h288M44 316h288M44 317h288M44 318h288M44 319h288M44 320h288M44 321h288M44 322h288M44 323h288M44 324h288M44 325h288M44 326h288M44 327h288M44 328h288M44 329h288M44 330h288M44 331h288M44 332h288M44 333h288M57 334h262M57 335h262M57 336h262M57 337h262M57 338h262M57 339h262M57 340h262M57 341h262M57 342h262M57 343h262M57 344h262M57 345h262M57 346h262M57 347h262M57 348h262M57 349h262M57 350h262M57 351h262M57 352h262M57 353h262M57 354h262M57 355h262M57 356h262M57 357h262M57 358h262M57 359h262M70 360h236M70 361h236M70 362h236M70 363h236M70 364h236M70 365h236M70 366h236M70 367h236M70 368h236M70 369h236M70 370h236M70 371h236M70 372h236M70 373h236M70 374h236M70 375h236M70 376h236M70 377h236M70 378h236M70 379h236M70 380h236M70 381h236M70 382h236M70 383h236M70 384h236M70 385h236M83 386h209M83 387h209M83 388h209M83 389h209M83 390h209M83 391h209M83 392h209M83 393h209M83 394h209M83 395h209M83 396h209M83 397h209M83 398h209M96 399h183M96 400h183M96 401h183M96 402h183M96 403h183M96 404h183M96 405h183M96 406h183M96 407h183M96 408h183M96 409h183M96 410h183M96 411h183M123 412h130M123 413h130M123 414h130M123 415h130M123 416h130M123 417h130M123 418h130M123 419h130M123 420h130M123 421h130M123 422h130M123 423h130M123 424h130M123 425h130" />
<path stroke="rgba(182,246,255,0.4980392156862745)" d="M161 46h1M161 47h1M161 48h1M161 49h1M161 50h1M161 51h1M161 52h1M161 53h1M161 54h1M161 55h1M161 56h1M161 57h1M96 176h26M254 176h25M476 216h1M476 217h1M476 218h1M476 219h1M476 220h1M476 221h1M476 222h1M476 223h1M476 224h1M476 225h1M476 226h1M476 227h1M476 228h1M56 229h1M56 230h1M56 231h1M56 232h1M56 233h1M56 234h1M56 235h1M56 236h1M56 237h1M56 238h1M56 239h1M56 240h1M56 241h1M56 242h1M56 243h1M56 244h1M56 245h1M56 246h1M56 247h1M56 248h1M56 249h1M56 250h1M56 251h1M56 252h1M56 253h1M56 254h1M266 256h1M476 256h1M266 257h1M476 257h1M266 258h1M476 258h1M266 259h1M476 259h1M266 260h1M476 260h1M266 261h1M476 261h1M266 262h1M476 262h1M266 263h1M476 263h1M266 264h1M476 264h1M266 265h1M476 265h1M266 266h1M476 266h1M266 267h1M476 267h1M266 268h1M266 269h1M266 270h1M266 271h1M266 272h1M266 273h1M266 274h1M266 275h1M266 276h1M266 277h1M266 278h1M266 279h1M266 280h1M188 281h13M254 281h12M438 281h25M56 334h1M56 335h1M56 336h1M56 337h1M56 338h1M56 339h1M56 340h1M56 341h1M56 342h1M56 343h1M56 344h1M56 345h1M56 346h1M56 347h1M56 348h1M56 349h1M56 350h1M56 351h1M56 352h1M56 353h1M56 354h1M56 355h1M56 356h1M56 357h1M56 358h1M56 359h1M70 386h12M293 386h13" />
<path stroke="rgba(182,246,255,0.24705882352941178)" d="M240 46h1M240 47h1M240 48h1M240 49h1M240 50h1M240 51h1M240 52h1M240 53h1M240 54h1M240 55h1M240 56h1M240 57h1M70 150h236M188 255h13M254 255h12M477 255h12M57 360h12M306 360h13" />
<path stroke="rgba(182,246,254,0.6235294117647059)" d="M109 58h13M162 58h39M241 58h12M123 163h130M253 243h1M253 244h1M253 245h1M253 246h1M253 247h1M253 248h1M253 249h1M253 250h1M253 251h1M253 252h1M253 253h1M253 254h1M266 255h1M476 255h1M43 256h1M43 257h1M43 258h1M43 259h1M43 260h1M43 261h1M43 262h1M43 263h1M43 264h1M43 265h1M43 266h1M43 267h1M43 268h1M43 269h1M43 270h1M43 271h1M43 272h1M43 273h1M43 274h1M43 275h1M43 276h1M43 277h1M43 278h1M43 279h1M43 280h1M43 281h1M43 282h1M253 282h1M43 283h1M253 283h1M43 284h1M253 284h1M43 285h1M253 285h1M43 286h1M253 286h1M43 287h1M253 287h1M43 288h1M253 288h1M43 289h1M253 289h1M43 290h1M253 290h1M43 291h1M253 291h1M43 292h1M253 292h1M43 293h1M253 293h1M43 294h1M43 295h1M43 296h1M43 297h1M43 298h1M43 299h1M43 300h1M43 301h1M43 302h1M43 303h1M43 304h1M43 305h1M43 306h1M43 307h1M43 308h1M43 309h1M43 310h1M43 311h1M43 312h1M43 313h1M43 314h1M43 315h1M43 316h1M43 317h1M43 318h1M43 319h1M43 320h1M43 321h1M43 322h1M43 323h1M43 324h1M43 325h1M43 326h1M43 327h1M43 328h1M43 329h1M43 330h1M43 331h1M43 332h1M43 333h1" />
<path stroke="rgba(182,246,254,0.9764705882352941)" d="M122 58h1" />
<path stroke="rgba(182,246,254,0.8117647058823529)" d="M161 58h1M292 190h1M292 191h1M292 192h1M292 193h1M292 194h1M292 195h1M292 196h1M292 197h1M292 198h1M292 199h1M292 200h1M292 201h1M187 256h1M187 257h1M187 258h1M187 259h1M187 260h1M187 261h1M187 262h1M187 263h1M187 264h1M187 265h1M187 266h1M187 267h1M187 268h1M187 269h1M187 270h1M187 271h1M187 272h1M187 273h1M187 274h1M187 275h1M187 276h1M187 277h1M187 278h1M187 279h1M187 280h1M397 295h1M397 296h1M397 297h1M397 298h1M397 299h1M397 300h1M397 301h1M397 302h1M397 303h1M397 304h1M397 305h1M397 306h1M346 307h51M292 387h1M292 388h1M292 389h1M292 390h1M292 391h1M292 392h1M292 393h1M292 394h1M292 395h1M292 396h1M292 397h1M292 398h1M96 412h26M254 412h25" />
<path stroke="rgba(182,246,254,0.7176470588235294)" d="M240 58h1" />
<path stroke="rgba(181,246,255,0.23137254901960785)" d="M253 58h1M253 163h1M240 294h1" />
<path stroke="rgba(183,248,255,0.30980392156862746)" d="M69 124h1M69 125h1M69 126h1M69 127h1M69 128h1M69 129h1M69 130h1M69 131h1M69 132h1M69 133h1M69 134h1M69 135h1M69 136h1M69 137h1M69 138h1M69 139h1M69 140h1M69 141h1M69 142h1M69 143h1M69 144h1M69 145h1M69 146h1M69 147h1M69 148h1M69 149h1M83 189h13M280 189h12M69 203h1M69 204h1M69 205h1M69 206h1M69 207h1M69 208h1M69 209h1M69 210h1M69 211h1M69 212h1M69 213h1M69 214h1M69 215h1M69 216h1M69 217h1M69 218h1M69 219h1M69 220h1M69 221h1M69 222h1M69 223h1M69 224h1M69 225h1M69 226h1M69 227h1M69 228h1M384 243h1M384 244h1M384 245h1M384 246h1M384 247h1M384 248h1M384 249h1M384 250h1M384 251h1M384 252h1M384 253h1M384 254h1M253 281h1M201 294h13M241 294h12M69 361h1M69 362h1M69 363h1M69 364h1M69 365h1M69 366h1M69 367h1M69 368h1M69 369h1M69 370h1M69 371h1M69 372h1M69 373h1M69 374h1M69 375h1M69 376h1M69 377h1M69 378h1M69 379h1M69 380h1M69 381h1M69 382h1M69 383h1M69 384h1M69 385h1" />
<path stroke="rgba(187,254,254,0.07450980392156863)" d="M69 150h1" />
<path stroke="rgba(183,246,255,0.5843137254901961)" d="M122 163h1" />
<path stroke="rgba(182,246,254,0.9686274509803922)" d="M122 176h1" />
<path stroke="rgba(182,246,255,0.6862745098039216)" d="M253 176h1M279 177h1M279 178h1M279 179h1M279 180h1M279 181h1M279 182h1M279 183h1M279 184h1M279 185h1M279 186h1M279 187h1M279 188h1M489 229h1M489 230h1M489 231h1M489 232h1M489 233h1M489 234h1M489 235h1M489 236h1M489 237h1M489 238h1M489 239h1M489 240h1M489 241h1M489 242h1M489 243h1M489 244h1M489 245h1M489 246h1M489 247h1M489 248h1M489 249h1M489 250h1M489 251h1M489 252h1M489 253h1M489 254h1M398 294h39M83 399h13M280 399h12M279 400h1M279 401h1M279 402h1M279 403h1M279 404h1M279 405h1M279 406h1M279 407h1M279 408h1M279 409h1M279 410h1M279 411h1" />
<path stroke="rgba(181,246,254,0.3411764705882353)" d="M279 176h1" />
<path stroke="rgba(182,255,255,0.054901960784313725)" d="M82 189h1M69 202h1" />
<path stroke="rgba(182,246,255,0.7843137254901961)" d="M279 189h1" />
<path stroke="rgba(183,247,255,0.25098039215686274)" d="M292 189h1" />
<path stroke="rgba(183,246,255,0.33725490196078434)" d="M82 202h1" />
<path stroke="rgba(182,246,254,0.8470588235294118)" d="M292 202h1" />
<path stroke="rgba(187,255,255,0.058823529411764705)" d="M201 242h13M241 242h12M332 256h1M332 257h1M332 258h1M332 259h1M332 260h1M332 261h1M332 262h1M332 263h1M332 264h1M332 265h1M332 266h1M332 267h1M332 268h1M332 269h1M332 270h1M332 271h1M332 272h1M332 273h1M332 274h1M332 275h1M332 276h1M332 277h1M332 278h1M332 279h1M332 280h1M332 281h1M332 282h1M437 282h1M332 283h1M437 283h1M332 284h1M437 284h1M332 285h1M437 285h1M332 286h1M437 286h1M332 287h1M437 287h1M332 288h1M437 288h1M332 289h1M437 289h1M332 290h1M437 290h1M332 291h1M437 291h1M332 292h1M437 292h1M332 293h1M437 293h1M332 294h1M332 295h1M332 296h1M332 297h1M332 298h1M332 299h1M332 300h1M332 301h1M332 302h1M332 303h1M332 304h1M332 305h1M332 306h1M332 307h1M332 308h1M332 309h1M332 310h1M332 311h1M332 312h1M332 313h1M332 314h1M332 315h1M332 316h1M332 317h1M332 318h1M332 319h1M332 320h1M332 321h1M332 322h1M332 323h1M332 324h1M332 325h1M332 326h1M332 327h1M332 328h1M332 329h1M332 330h1M332 331h1M332 332h1M332 333h1" />
<path stroke="rgba(185,254,254,0.043137254901960784)" d="M240 242h1M332 255h1" />
<path stroke="rgba(182,247,254,0.6470588235294118)" d="M253 242h1" />
<path stroke="rgba(182,248,255,0.2901960784313726)" d="M384 242h1" />
<path stroke="rgba(182,246,254,0.4666666666666667)" d="M43 255h1" />
<path stroke="rgba(182,246,254,0.8745098039215686)" d="M56 255h1" />
<path stroke="rgba(182,246,254,0.8588235294117647)" d="M187 255h1" />
<path stroke="rgba(183,248,255,0.15294117647058825)" d="M253 255h1M69 386h1" />
<path stroke="rgba(181,246,254,0.5607843137254902)" d="M345 255h1" />
<path stroke="rgba(182,246,254,0.8274509803921568)" d="M384 255h1" />
<path stroke="rgba(183,249,255,0.16862745098039217)" d="M489 255h1" />
<path stroke="rgba(182,246,254,0.6078431372549019)" d="M463 268h1M345 307h1" />
<path stroke="rgba(182,246,254,0.9058823529411765)" d="M187 281h1M292 386h1" />
<path stroke="rgba(183,247,255,0.5294117647058824)" d="M437 281h1" />
<path stroke="rgba(182,246,255,0.7411764705882353)" d="M253 294h1" />
<path stroke="rgba(182,246,255,0.9411764705882353)" d="M397 294h1" />
<path stroke="rgba(178,255,255,0.0392156862745098)" d="M437 294h1" />
<path stroke="rgba(182,246,254,0.796078431372549)" d="M240 307h1" />
<path stroke="rgba(182,247,254,0.6588235294117647)" d="M397 307h1" />
<path stroke="rgba(180,246,254,0.12156862745098039)" d="M56 360h1" />
<path stroke="rgba(182,246,254,0.4823529411764706)" d="M69 360h1" />
<path stroke="rgba(182,246,254,0.592156862745098)" d="M82 386h1" />
<path stroke="rgba(183,247,255,0.12549019607843137)" d="M82 399h1" />
<path stroke="rgba(182,246,254,0.9019607843137255)" d="M279 399h1" />
<path stroke="rgba(183,246,255,0.5568627450980392)" d="M292 399h1M279 412h1" />
<path stroke="rgba(182,246,254,0.9882352941176471)" d="M122 412h1" />
<path stroke="rgba(182,247,254,0.8823529411764706)" d="M253 412h1" />
</svg>