<svg xmlns="http://www.w3.org/2000/svg" width="1024" height="768" fill="none"><mask id="a" width="352" height="263" x="336" y="252" maskUnits="userSpaceOnUse" style="mask-type:alpha"><path fill="#000" d="m358.326 252 14.931 185.436h.569L388.758 252h22.325l-24.032 263h-27.019L336 252h22.326ZM435.031 252v263h-19.766V252h19.766ZM441.567 515V252h19.767v205.469h29.436V515h-49.203ZM495.929 515V252h19.766v205.469h29.436V515h-49.202ZM569.203 515h-21.331l24.033-263h27.018l24.033 263h-21.331l-15.927-190.572h-.568L569.203 515Zm-3.982-103.762h40.101v53.422h-40.101v-53.422ZM627.137 515V252h31.427c5.404 0 10.132 3.553 14.185 10.659 4.052 7.105 7.205 17.336 9.456 30.692 2.252 13.355 3.378 29.364 3.378 48.028 0 18.835-1.162 34.716-3.484 47.643-2.299 12.927-5.535 22.687-9.706 29.279-4.147 6.592-8.994 9.888-14.54 9.888h-18.771v-55.476h14.789c2.323 0 4.302-1.027 5.937-3.082 1.659-2.14 2.927-5.522 3.804-10.145.901-4.623 1.351-10.659 1.351-18.107 0-7.534-.45-13.655-1.351-18.364-.877-4.794-2.145-8.304-3.804-10.53-1.635-2.312-3.614-3.467-5.937-3.467h-6.968V515h-19.766Zm42.661-120.713L688 515h-21.473l-17.775-120.713h21.046Z"/></mask><g mask="url(#a)"><circle cx="512" cy="384" r="201" fill="#28282D"/><mask id="b" width="354" height="376" x="343" y="196" fill="#000" maskUnits="userSpaceOnUse"><path fill="#fff" d="M343 196h354v376H343z"/><path d="M595.729 322.392c-.474-6.274-1.776-11.778-3.907-16.513-2.13-4.853-5.149-8.937-9.055-12.251-3.906-3.433-8.76-5.978-14.56-7.635-5.682-1.776-12.37-2.663-20.064-2.663-16.572 0-31.664 3.965-45.277 11.896-13.612 7.931-25.035 19.354-34.268 34.268-9.115 14.915-15.388 32.908-18.821 53.978-3.551 21.306-3.847 39.536-.888 54.687 2.959 15.152 9.351 26.752 19.176 34.801 9.943 8.049 23.378 12.074 40.306 12.074 15.151 0 28.231-2.19 39.24-6.57 11.008-4.379 19.827-10.594 26.456-18.643 6.628-8.049 10.771-17.519 12.429-28.409l17.045 1.776h-83.097l11.364-70.313H693.03l-8.168 50.426c-5.445 33.144-17.164 61.494-35.156 85.05-17.874 23.437-40.128 41.43-66.762 53.977-26.633 12.429-55.871 18.644-87.713 18.644-35.274 0-65.045-7.517-89.311-22.55-24.266-15.033-41.607-36.458-52.024-64.276-10.298-27.817-12.31-60.902-6.037-99.254 4.972-30.066 13.968-56.7 26.989-79.901 13.139-23.2 29.178-42.791 48.118-58.771 18.939-16.098 39.832-28.231 62.677-36.399 22.846-8.286 46.52-12.429 71.023-12.429 21.425 0 40.897 3.078 58.416 9.233 17.519 6.037 32.493 14.678 44.922 25.923 12.429 11.127 21.721 24.326 27.877 39.595 6.273 15.27 8.818 32.02 7.634 50.249h-99.786Z"/></mask><path fill="#fff" d="M595.729 322.392c-.474-6.274-1.776-11.778-3.907-16.513-2.13-4.853-5.149-8.937-9.055-12.251-3.906-3.433-8.76-5.978-14.56-7.635-5.682-1.776-12.37-2.663-20.064-2.663-16.572 0-31.664 3.965-45.277 11.896-13.612 7.931-25.035 19.354-34.268 34.268-9.115 14.915-15.388 32.908-18.821 53.978-3.551 21.306-3.847 39.536-.888 54.687 2.959 15.152 9.351 26.752 19.176 34.801 9.943 8.049 23.378 12.074 40.306 12.074 15.151 0 28.231-2.19 39.24-6.57 11.008-4.379 19.827-10.594 26.456-18.643 6.628-8.049 10.771-17.519 12.429-28.409l17.045 1.776h-83.097l11.364-70.313H693.03l-8.168 50.426c-5.445 33.144-17.164 61.494-35.156 85.05-17.874 23.437-40.128 41.43-66.762 53.977-26.633 12.429-55.871 18.644-87.713 18.644-35.274 0-65.045-7.517-89.311-22.55-24.266-15.033-41.607-36.458-52.024-64.276-10.298-27.817-12.31-60.902-6.037-99.254 4.972-30.066 13.968-56.7 26.989-79.901 13.139-23.2 29.178-42.791 48.118-58.771 18.939-16.098 39.832-28.231 62.677-36.399 22.846-8.286 46.52-12.429 71.023-12.429 21.425 0 40.897 3.078 58.416 9.233 17.519 6.037 32.493 14.678 44.922 25.923 12.429 11.127 21.721 24.326 27.877 39.595 6.273 15.27 8.818 32.02 7.634 50.249h-99.786Z"/><path fill="#006BAE" d="m595.729 322.392-.998.075.07.925h.928v-1Zm-3.907-16.513-.915.402.003.009.912-.411Zm-9.055-12.251-.66.751.006.006.007.005.647-.762Zm-14.56-7.635-.298.954.012.004.011.003.275-.961Zm-65.341 9.233.504.864-.504-.864Zm-34.268 34.268-.85-.526-.003.005.853.521Zm-18.821 53.978.986.164.001-.004-.987-.16Zm-.888 54.687-.981.192.981-.192Zm19.176 34.801-.634.774.005.003.629-.777Zm106.002-13.139-.772-.636.772.636Zm12.429-28.409.103-.995-.949-.099-.143.943.989.151Zm17.045 1.776v1l.104-1.995-.104.995Zm-83.097 0-.987-.16-.187 1.16h1.174v-1Zm11.364-70.313v-1h-.851l-.136.84.987.16Zm161.222 0 .987.16.188-1.16h-1.175v1Zm-8.168 50.426.987.162v-.002l-.987-.16Zm-35.156 85.05-.795-.607.795.607Zm-66.762 53.977.423.906.004-.001-.427-.905Zm-177.024-3.906-.526.85.526-.85Zm-52.024-64.276-.938.347.002.004.936-.351Zm-6.037-99.254-.986-.163-.001.002.987.161Zm26.989-79.901-.87-.492-.002.003.872.489Zm48.118-58.771.645.764.002-.002-.647-.762Zm62.677-36.399.337.942.004-.002-.341-.94Zm129.439-3.196-.331.943.005.002.326-.945Zm44.922 25.923-.671.742.004.003.667-.745Zm27.877 39.595-.928.374.003.006.925-.38Zm7.634 50.249v1h.938l.06-.935-.998-.065Zm-99.786 0 .997-.075c-.481-6.366-1.805-11.988-3.992-16.848l-.912.41-.912.411c2.074 4.609 3.355 9.996 3.821 16.177l.998-.075Zm-3.907-16.513.916-.402c-2.19-4.987-5.298-9.196-9.324-12.612l-.647.763-.647.762c3.786 3.213 6.715 7.172 8.787 11.891l.915-.402Zm-9.055-12.251.66-.751c-4.034-3.545-9.025-6.154-14.945-7.846l-.275.962-.275.961c5.681 1.623 10.396 4.105 14.175 7.425l.66-.751Zm-14.56-7.635.298-.955c-5.801-1.813-12.594-2.708-20.362-2.708v2c7.621 0 14.204.879 19.766 2.617l.298-.954Zm-20.064-2.663v-1c-16.739 0-32.007 4.007-45.78 12.032l.503.864.504.864c13.452-7.837 28.369-11.76 44.773-11.76v-1Zm-45.277 11.896-.503-.864c-13.77 8.022-25.306 19.568-34.615 34.606l.85.526.85.527c9.157-14.792 20.466-26.092 33.922-33.931l-.504-.864Zm-34.268 34.268-.853-.521c-9.196 15.047-15.506 33.167-18.955 54.338l.987.161.987.16c3.416-20.969 9.653-38.833 18.687-53.616l-.853-.522Zm-18.821 53.978-.987-.165c-3.563 21.381-3.872 39.738-.882 55.044l.981-.192.981-.192c-2.929-14.997-2.646-33.099.893-54.331l-.986-.164Zm-.888 54.687-.981.192c2.994 15.329 9.482 27.156 19.523 35.383l.634-.774.634-.773c-9.608-7.872-15.904-19.246-18.829-34.22l-.981.192Zm19.176 34.801-.629.777c10.171 8.235 23.853 12.297 40.935 12.297v-2c-16.773 0-29.962-3.987-39.677-11.851l-.629.777Zm40.306 12.074v1c15.244 0 28.455-2.203 39.609-6.64l-.369-.93-.37-.929c-10.863 4.322-23.812 6.499-38.87 6.499v1Zm39.24-6.57.369.93c11.144-4.434 20.109-10.741 26.859-18.937l-.772-.636-.772-.636c-6.508 7.903-15.181 14.024-26.054 18.35l.37.929Zm26.456-18.643.772.636c6.75-8.197 10.962-17.837 12.645-28.895l-.988-.15-.989-.151c-1.632 10.723-5.705 20.022-12.212 27.924l.772.636Zm12.429-28.409-.104.995 17.045 1.775.104-.994.104-.995-17.046-1.776-.103.995Zm17.045 1.776v-1h-83.097v2h83.097v-1Zm-83.097 0 .988.159 11.363-70.312-.987-.16-.987-.16-11.364 70.313.987.16Zm11.364-70.313v1H693.03v-2H531.808v1Zm161.222 0-.987-.16-8.168 50.426.987.16.987.16 8.168-50.426-.987-.16Zm-8.168 50.426-.987-.162c-5.422 33.004-17.084 61.196-34.964 84.605l.795.607.794.607c18.105-23.703 29.881-52.211 35.349-85.495l-.987-.162Zm-35.156 85.05-.795-.607c-17.777 23.311-39.905 41.201-66.393 53.679l.426.905.427.905c26.778-12.616 49.159-30.711 67.13-54.276l-.795-.606Zm-66.762 53.977-.422-.906c-26.491 12.362-55.583 18.55-87.291 18.55v2c31.976 0 61.36-6.242 88.136-18.738l-.423-.906Zm-87.713 18.644v-1c-35.132 0-64.71-7.486-88.784-22.4l-.527.85-.526.85c24.457 15.152 54.42 22.7 89.837 22.7v-1Zm-89.311-22.55.527-.85c-24.07-14.912-41.272-36.157-51.614-63.776l-.937.35-.936.351c10.491 28.015 27.971 49.62 52.434 64.775l.526-.85Zm-52.024-64.276.938-.347c-10.222-27.612-12.242-60.513-5.988-98.746l-.987-.161-.987-.161c-6.293 38.471-4.288 71.74 6.086 99.762l.938-.347Zm-6.037-99.254.987.163c4.955-29.968 13.918-56.488 26.874-79.574l-.872-.49-.872-.489c-13.086 23.316-22.116 50.062-27.103 80.227l.986.163Zm26.989-79.901.87.493c13.085-23.105 29.05-42.601 47.893-58.5l-.645-.764-.645-.764c-19.037 16.062-35.15 35.747-48.343 59.043l.87.492Zm48.118-58.771.647.762c18.85-16.022 39.638-28.093 62.367-36.219l-.337-.942-.336-.942c-22.962 8.21-43.96 20.405-62.989 36.579l.648.762Zm62.677-36.399.341.94c22.736-8.246 46.294-12.369 70.682-12.369v-2c-24.618 0-48.408 4.163-71.364 12.489l.341.94Zm71.023-12.429v1c21.329 0 40.687 3.064 58.085 9.176l.331-.943.332-.943c-17.641-6.198-37.227-9.29-58.748-9.29v1Zm58.416 9.233-.326.945c17.405 5.998 32.258 14.574 44.577 25.72l.671-.742.671-.741c-12.539-11.345-27.634-20.051-45.267-26.127l-.326.945Zm44.922 25.923-.667.745c12.317 11.026 21.519 24.098 27.616 39.224l.928-.374.927-.373c-6.213-15.414-15.595-28.739-28.137-39.967l-.667.745Zm27.877 39.595-.925.38c6.209 15.115 8.736 31.711 7.562 49.804l.997.065.998.065c1.193-18.365-1.37-35.268-7.708-50.694l-.924.38Zm7.634 50.249v-1h-99.786v2h99.786v-1Z" mask="url(#b)"/></g></svg>